<svg width="24" height="816" viewBox="0 0 24 816" fill="none" xmlns="http://www.w3.org/2000/svg">
<path d="M19.2568 18.7732C13.9383 18.7732 12.1748 23.7377 11.8285 25.9861C11.4823 23.7377 9.40922 18.7732 4.09068 18.7732C6.19962 13.8384 8.42387 10.2403 11.7776 7.12237C15.2332 10.8639 16.9134 13.5346 19.2568 18.7732Z" stroke="#AAA4A4" stroke-linecap="square" stroke-linejoin="round"/>
<path d="M15.542 53.3827C12.8284 53.3827 12.0045 50.8641 11.8278 49.6827C11.6512 50.8641 10.5177 53.3827 7.80416 53.3827L11.8278 59.6602L15.542 53.3827Z" stroke="#AAA4A4" stroke-linejoin="round"/>
<path d="M11.8464 32.6029C11.8574 31.4209 12.1671 29.4467 12.6074 28.4515C13.0476 27.4562 13.9291 26.385 15.0651 25.9272C16.9585 25.1643 18.9639 25.426 20.7122 26.7339C24.0814 29.2546 23.068 36.4568 17.7832 35.6937M17.7832 35.6937C17.6319 35.6719 17.4771 35.6435 17.3188 35.6083M17.7832 35.6937C17.6263 35.6798 17.4711 35.6508 17.3188 35.6083M17.7832 35.6937C17.8155 35.6966 17.8478 35.6988 17.8802 35.7004M17.3188 35.6083C17.282 35.6001 17.2449 35.5916 17.2076 35.5826M17.3188 35.6083C15.4271 35.0807 14.0019 32.484 15.7375 31.2078C16.9639 30.3059 18.775 31.132 18.5975 33.0876M11.8152 32.6029C11.8042 31.4209 11.4944 29.4467 11.0542 28.4515C10.6139 27.4562 9.73247 26.385 8.59645 25.9272C6.70309 25.1643 4.69765 25.426 2.9494 26.7339C-0.419824 29.2546 0.593605 36.4568 5.87838 35.6937M5.87838 35.6937C6.02966 35.6719 6.18444 35.6435 6.34272 35.6083M5.87838 35.6937C6.03524 35.6798 6.19049 35.6508 6.34272 35.6083M5.87838 35.6937C5.84609 35.6966 5.81373 35.6988 5.78132 35.7004M6.34272 35.6083C6.3796 35.6001 6.41666 35.5916 6.45392 35.5826M6.34272 35.6083C8.2345 35.0807 9.65962 32.484 7.92404 31.2078C6.69766 30.3059 4.88657 31.132 5.06405 33.0876" stroke="#AAA4A4" stroke-linecap="square" stroke-linejoin="round"/>
<path d="M20.4941 35.1841C14.1549 39.4542 12.3822 42.5333 11.8278 48.2796C11.2733 42.5333 9.50066 39.4542 3.16139 35.1841" stroke="#AAA4A4" stroke-linecap="square" stroke-linejoin="round"/>
<path d="M10.8648 1.79885L11.169 2.19566L10.8648 1.79885ZM5.22555 7.7459V8.2459C5.03972 8.2459 4.86922 8.14284 4.78285 7.9783C4.69647 7.81376 4.70847 7.6149 4.81401 7.46194L5.22555 7.7459ZM11.8503 1.04337L11.5461 0.646561C11.7366 0.500457 12.0042 0.510468 12.1833 0.670404L11.8503 1.04337ZM12.7765 1.87038L12.4435 2.24335H12.4435L12.7765 1.87038ZM18.0928 7.7459L18.505 7.46295C18.61 7.61598 18.6217 7.81461 18.5352 7.97884C18.4487 8.14308 18.2784 8.2459 18.0928 8.2459V7.7459ZM14.3474 7.7459V8.2459C14.1976 8.2459 14.0556 8.1787 13.9607 8.06279L14.3474 7.7459ZM11.7167 4.96615L11.3924 4.58562C11.5863 4.42039 11.8733 4.42731 12.059 4.60167L11.7167 4.96615ZM8.97911 7.7459L9.36465 8.06427C9.26966 8.17929 9.12828 8.2459 8.97911 8.2459V7.7459ZM11.169 2.19566C8.92367 3.91706 7.1715 5.80599 5.6371 8.02985L4.81401 7.46194C6.40448 5.15681 8.22791 3.1904 10.5606 1.40205L11.169 2.19566ZM12.1545 1.44018L11.169 2.19566L10.5606 1.40205L11.5461 0.646561L12.1545 1.44018ZM12.4435 2.24335L11.5172 1.41633L12.1833 0.670404L13.1095 1.49742L12.4435 2.24335ZM17.6805 8.02884C16.2521 5.94772 14.7225 4.27829 12.4435 2.24335L13.1095 1.49742C15.4321 3.57123 17.0203 5.29979 18.505 7.46295L17.6805 8.02884ZM18.0928 8.2459H14.3474V7.2459H18.0928V8.2459ZM12.059 4.60167C13.0892 5.56912 13.9499 6.47184 14.7342 7.429L13.9607 8.06279C13.2095 7.14613 12.3802 6.27511 11.3745 5.33064L12.059 4.60167ZM8.59357 7.42752C9.44007 6.40245 10.3596 5.46592 11.3924 4.58562L12.0411 5.34669C11.0528 6.18899 10.1742 7.08389 9.36465 8.06427L8.59357 7.42752ZM8.97911 8.2459H5.22555V7.2459H8.97911V8.2459Z" fill="#AAA4A4"/>
<path d="M12 59.4629L12 756.571" stroke="#AAA4A4"/>
<path d="M4.4043 797.457C9.72284 797.457 11.4864 792.493 11.8326 790.245C12.1789 792.493 14.2519 797.457 19.5705 797.457C17.4615 802.392 15.2373 805.99 11.8835 809.108C8.42797 805.367 6.7477 802.696 4.4043 797.457Z" stroke="#AAA4A4" stroke-linecap="square" stroke-linejoin="round"/>
<path d="M8.11914 762.848C10.8327 762.848 11.6566 765.367 11.8333 766.548C12.01 765.367 13.1434 762.848 15.857 762.848L11.8333 756.57L8.11914 762.848Z" stroke="#AAA4A4" stroke-linejoin="round"/>
<path d="M11.8147 783.628C11.8037 784.81 11.494 786.784 11.0538 787.779C10.6135 788.775 9.73204 789.846 8.59603 790.304C6.70267 791.066 4.69722 790.805 2.94897 789.497C-0.420253 786.976 0.593176 779.774 5.87795 780.537M5.87795 780.537C6.02923 780.559 6.18401 780.587 6.34229 780.622M5.87795 780.537C6.03481 780.551 6.19006 780.58 6.34229 780.622M5.87795 780.537C5.84566 780.534 5.8133 780.532 5.78089 780.53M6.34229 780.622C6.37917 780.631 6.41623 780.639 6.45349 780.648M6.34229 780.622C8.23407 781.15 9.65919 783.747 7.92361 785.023C6.69723 785.925 4.88614 785.099 5.06362 783.143M11.846 783.628C11.857 784.81 12.1667 786.784 12.6069 787.779C13.0472 788.775 13.9287 789.846 15.0647 790.304C16.958 791.066 18.9635 790.805 20.7117 789.497C24.081 786.976 23.0675 779.774 17.7828 780.537M17.7828 780.537C17.6315 780.559 17.4767 780.587 17.3184 780.622M17.7828 780.537C17.6259 780.551 17.4706 780.58 17.3184 780.622M17.7828 780.537C17.815 780.534 17.8474 780.532 17.8798 780.53M17.3184 780.622C17.2815 780.631 17.2445 780.639 17.2072 780.648M17.3184 780.622C15.4266 781.15 14.0015 783.747 15.7371 785.023C16.9635 785.925 18.7746 785.099 18.5971 783.143" stroke="#AAA4A4" stroke-linecap="square" stroke-linejoin="round"/>
<path d="M3.16602 781.047C9.50528 776.776 11.2779 773.697 11.8324 767.951C12.3868 773.697 14.1595 776.776 20.4988 781.047" stroke="#AAA4A4" stroke-linecap="square" stroke-linejoin="round"/>
<path d="M12.7963 814.432L12.4921 814.035H12.4921L12.7963 814.432ZM18.4356 808.485V807.985C18.6214 807.985 18.7919 808.088 18.8783 808.252C18.9647 808.417 18.9527 808.616 18.8471 808.769L18.4356 808.485ZM11.8109 815.187L12.1151 815.584C11.9245 815.73 11.657 815.72 11.4779 815.56L11.8109 815.187ZM10.8847 814.36L11.2177 813.987L10.8847 814.36ZM5.56836 808.485L5.15612 808.768C5.05108 808.615 5.03946 808.416 5.12594 808.252C5.21241 808.088 5.38275 807.985 5.56836 807.985V808.485ZM9.31373 808.485V807.985C9.46357 807.985 9.60551 808.052 9.70047 808.168L9.31373 808.485ZM11.9444 811.265L12.2687 811.645C12.0749 811.81 11.7878 811.803 11.6021 811.629L11.9444 811.265ZM14.682 808.485L14.2965 808.166C14.3915 808.051 14.5329 807.985 14.682 807.985V808.485ZM12.4921 814.035C14.7375 812.314 16.4897 810.425 18.0241 808.201L18.8471 808.769C17.2567 811.074 15.4332 813.04 13.1005 814.829L12.4921 814.035ZM11.5067 814.791L12.4921 814.035L13.1005 814.829L12.1151 815.584L11.5067 814.791ZM11.2177 813.987L12.1439 814.814L11.4779 815.56L10.5516 814.733L11.2177 813.987ZM5.9806 808.202C7.409 810.283 8.9386 811.952 11.2177 813.987L10.5516 814.733C8.22904 812.66 6.64082 810.931 5.15612 808.768L5.9806 808.202ZM5.56836 807.985H9.31373V808.985H5.56836V807.985ZM11.6021 811.629C10.5719 810.662 9.71127 809.759 8.92698 808.802L9.70047 808.168C10.4516 809.085 11.2809 809.956 12.2867 810.9L11.6021 811.629ZM15.0676 808.803C14.2211 809.828 13.3016 810.765 12.2687 811.645L11.6201 810.884C12.6083 810.042 13.4869 809.147 14.2965 808.166L15.0676 808.803ZM14.682 807.985H18.4356V808.985H14.682V807.985Z" fill="#AAA4A4"/>
</svg>
